<?xml version="1.0" encoding="UTF-8" standalone="no"?>
<svg width="100%" viewBox="0 0 340 200" version="1.1" xmlns="http://www.w3.org/2000/svg" xmlns:xlink="http://www.w3.org/1999/xlink">
    <!-- Generator: Sketch 41 (35326) - http://www.bohemiancoding.com/sketch -->
    <title>apps</title>
    <desc>Created with Sketch.</desc>
    <defs></defs>
    <g id="Page-1" stroke="none" stroke-width="1" fill="none" fill-rule="evenodd">
        <g id="apps" transform="translate(40.000000, 0.000000)">
            <g id="WebApps">
                <g id="Page-1">
                    <g id="Leistungen-Var-Copy-4">
                        <g id="Webapplikationen">
                            <g id="WebApps">
                                <g id="browser">
                                    <path d="M249.099207,0.406666667 L13.5873601,0.406666667 C6.08334888,0.406666667 0,6.48717948 0,13.9876923 L0,186.012307 C0,193.512821 6.08334888,199.593333 13.5873601,199.593333 L249.099207,199.593333 C256.603218,199.593333 262.686567,193.512821 262.686567,186.012307 L262.686567,13.9876923 C262.686567,6.48717948 256.603218,0.406666667 249.099207,0.406666667 Z M226.453778,9.46051282 L230.983069,9.46051282 C233.484235,9.46051282 235.51236,11.4876923 235.51236,13.9876923 C235.51236,16.4876923 233.484235,18.5148718 230.983069,18.5148718 L226.453778,18.5148718 C223.952612,18.5148718 221.924487,16.4876923 221.924487,13.9876923 C221.925,11.4876923 223.952612,9.46051282 226.453778,9.46051282 Z M99.6397851,9.46051282 L208.33764,9.46051282 C210.838806,9.46051282 212.866931,11.4876923 212.866931,13.9876923 C212.866931,16.4876923 210.838806,18.5148718 208.33764,18.5148718 L99.6397851,18.5148718 C97.1386194,18.5148718 95.1104944,16.4876923 95.1104944,13.9876923 C95.1104944,11.4876923 97.1386194,9.46051282 99.6397851,9.46051282 Z M76.9943563,9.46051282 L81.5236474,9.46051282 C84.0248134,9.46051282 86.0529384,11.4876923 86.0529384,13.9876923 C86.0529384,16.4876923 84.0248134,18.5148718 81.5236474,18.5148718 L76.9943563,18.5148718 C74.4931902,18.5148718 72.4650653,16.4876923 72.4650653,13.9876923 C72.4650653,11.4876923 74.4931902,9.46051282 76.9943563,9.46051282 Z M58.8782183,9.46051282 L63.4075094,9.46051282 C65.9086753,9.46051282 67.9368004,11.4876923 67.9368004,13.9876923 C67.9368004,16.4876923 65.9086753,18.5148718 63.4075094,18.5148718 L58.8782183,18.5148718 C56.3770522,18.5148718 54.3489273,16.4876923 54.3489273,13.9876923 C54.3489273,11.4876923 56.3770522,9.46051282 58.8782183,9.46051282 Z M40.7615672,9.46051282 C43.2627332,9.46051282 45.2908582,11.4876923 45.2908582,13.9876923 C45.2908582,16.4876923 43.2627332,18.5148718 40.7615672,18.5148718 C38.2604011,18.5148718 36.2322761,16.4876923 36.2322761,13.9876923 C36.2327892,11.4876923 38.2604011,9.46051282 40.7615672,9.46051282 Z M27.1747202,9.46051282 C29.6758862,9.46051282 31.7040112,11.4876923 31.7040112,13.9876923 C31.7040112,16.4876923 29.6758862,18.5148718 27.1747202,18.5148718 C24.6735541,18.5148718 22.6454292,16.4876923 22.6454292,13.9876923 C22.6454292,11.4876923 24.6730411,9.46051282 27.1747202,9.46051282 Z M13.5873601,9.46051282 C16.0885261,9.46051282 18.1166511,11.4876923 18.1166511,13.9876923 C18.1166511,16.4876923 16.0885261,18.5148718 13.5873601,18.5148718 C11.086194,18.5148718 9.05806902,16.4876923 9.05806902,13.9876923 C9.05806902,11.4876923 11.086194,9.46051282 13.5873601,9.46051282 Z M253.628499,54.7302564 L253.628499,186.012307 C253.628499,188.512307 251.600373,190.539488 249.099207,190.539488 L13.5873601,190.539488 C11.086194,190.539488 9.05806902,188.512307 9.05806902,186.012307 L9.05806902,54.7302564 L9.05806902,32.0953846 C9.05806902,29.5953846 11.086194,27.5682052 13.5873601,27.5682052 L249.099207,27.5682052 C251.600373,27.5682052 253.628499,29.5953846 253.628499,32.0953846 L253.628499,54.7302564 L253.628499,54.7302564 Z M249.099207,18.514359 L244.569916,18.514359 C242.06875,18.514359 240.040625,16.4871795 240.040625,13.9871795 C240.040625,11.4871795 242.06875,9.46 244.569916,9.46 L249.099207,9.46 C251.600373,9.46 253.628499,11.4871795 253.628499,13.9871795 C253.628499,16.4876923 251.600373,18.514359 249.099207,18.514359 Z" id="Shape" fill="#DCE9F1"></path>
                                    <path d="M9.05806902,186.012307 C9.05806902,188.512307 11.086194,190.539488 13.5873601,190.539488 L249.099207,190.539488 C251.600373,190.539488 253.628499,188.512307 253.628499,186.012307 L253.628499,54.7302564 L9.05806902,54.7302564 L9.05806902,186.012307 Z M203.808349,77.3651282 L203.808349,72.8379488 C203.808349,70.3379488 205.836474,68.3107693 208.33764,68.3107693 L235.51236,68.3107693 C238.013526,68.3107693 240.041651,70.3379488 240.041651,72.8379488 L240.041651,77.3651282 L240.041651,113.581026 C240.041651,116.081026 238.013526,118.108205 235.51236,118.108205 L208.33764,118.108205 C205.836474,118.108205 203.808349,116.081026 203.808349,113.581026 L203.808349,77.3651282 Z M153.988712,77.3651282 L153.988712,72.8379488 C153.988712,70.3379488 156.016838,68.3107693 158.518004,68.3107693 L185.692724,68.3107693 C188.19389,68.3107693 190.222015,70.3379488 190.222015,72.8379488 L190.222015,77.3651282 L190.222015,113.581026 C190.222015,116.081026 188.19389,118.108205 185.692724,118.108205 L158.518004,118.108205 C156.016838,118.108205 153.988712,116.081026 153.988712,113.581026 L153.988712,77.3651282 Z M153.988712,136.215898 C153.988712,133.715898 156.016838,131.688718 158.518004,131.688718 L163.047295,131.688718 L235.51236,131.688718 C238.013526,131.688718 240.041651,133.715898 240.041651,136.215898 L240.041651,172.431795 C240.041651,174.931795 238.013526,176.958974 235.51236,176.958974 L163.046782,176.958974 L158.517491,176.958974 C156.016324,176.958974 153.9882,174.931795 153.9882,172.431795 L153.9882,136.215898 L153.988712,136.215898 Z M104.168563,77.3651282 L104.168563,72.8379488 C104.168563,70.3379488 106.196689,68.3107693 108.697855,68.3107693 L135.872574,68.3107693 C138.37374,68.3107693 140.401866,70.3379488 140.401866,72.8379488 L140.401866,77.3651282 L140.401866,113.581026 C140.401866,116.081026 138.37374,118.108205 135.872574,118.108205 L108.697855,118.108205 C106.196689,118.108205 104.168563,116.081026 104.168563,113.581026 L104.168563,77.3651282 L104.168563,77.3651282 Z M22.6454292,77.3651282 L22.6454292,72.8379488 C22.6454292,70.3379488 24.6735541,68.3107693 27.1747202,68.3107693 L86.0529384,68.3107693 C88.5541045,68.3107693 90.5822295,70.3379488 90.5822295,72.8379488 L90.5822295,77.3651282 L90.5822295,113.581026 C90.5822295,116.081026 88.5541045,118.108205 86.0529384,118.108205 L27.1747202,118.108205 C24.6735541,118.108205 22.6454292,116.081026 22.6454292,113.581026 L22.6454292,77.3651282 L22.6454292,77.3651282 Z M22.6454291,136.215898 C22.6454291,133.715898 24.6735541,131.688718 27.1747201,131.688718 L31.7040111,131.688718 L135.872574,131.688718 C138.37374,131.688718 140.401866,133.715898 140.401866,136.215898 L140.401866,172.431795 C140.401866,174.931795 138.37374,176.958974 135.872574,176.958974 L31.7034981,176.958974 L27.1742071,176.958974 C24.673041,176.958974 22.644916,174.931795 22.644916,172.431795 L22.644916,136.215898 L22.6454291,136.215898 Z" id="Shape" fill="#FFFFFF"></path>
                                    <ellipse id="Oval" fill="#FF6469" cx="13.5873601" cy="13.9876923" rx="4.52929104" ry="4.52717948"></ellipse>
                                    <ellipse id="Oval" fill="#FFE169" cx="27.1747202" cy="13.9876923" rx="4.52929104" ry="4.52717948"></ellipse>
                                    <ellipse id="Oval" fill="#87E1AA" cx="40.7615672" cy="13.9876923" rx="4.52929104" ry="4.52717948"></ellipse>
                                    <g id="Group" transform="translate(53.871269, 9.230769)" fill="#E5F5FC">
                                        <path d="M5.00694962,9.28358974 L9.53624067,9.28358974 C12.0374067,9.28358974 14.0655317,7.25641026 14.0655317,4.75641026 C14.0655317,2.25641026 12.0374067,0.229230769 9.53624067,0.229230769 L5.00694962,0.229230769 C2.50578358,0.229230769 0.477658582,2.25641026 0.477658582,4.75641026 C0.477658582,7.25692307 2.50578358,9.28358974 5.00694962,9.28358974 Z" id="Shape"></path>
                                        <path d="M23.1230877,9.28358974 L27.6523787,9.28358974 C30.1535448,9.28358974 32.1816698,7.25641026 32.1816698,4.75641026 C32.1816698,2.25641026 30.1535448,0.229230769 27.6523787,0.229230769 L23.1230877,0.229230769 C20.6219216,0.229230769 18.5937966,2.25641026 18.5937966,4.75641026 C18.5937966,7.25692307 20.6219216,9.28358974 23.1230877,9.28358974 Z" id="Shape"></path>
                                        <path d="M172.582509,9.28358974 L177.1118,9.28358974 C179.612966,9.28358974 181.641092,7.25641026 181.641092,4.75641026 C181.641092,2.25641026 179.612966,0.229230769 177.1118,0.229230769 L172.582509,0.229230769 C170.081343,0.229230769 168.053218,2.25641026 168.053218,4.75641026 C168.053731,7.25692307 170.081343,9.28358974 172.582509,9.28358974 Z" id="Shape"></path>
                                        <path d="M195.227938,0.22974359 L190.698648,0.22974359 C188.197482,0.22974359 186.169356,2.25692307 186.169356,4.75692307 C186.169356,7.25692307 188.197482,9.28410257 190.698648,9.28410257 L195.227938,9.28410257 C197.729104,9.28410257 199.75723,7.25692307 199.75723,4.75692307 C199.75723,2.25692307 197.729104,0.22974359 195.227938,0.22974359 Z" id="Shape"></path>
                                        <path d="M45.7685168,9.28358974 L154.466371,9.28358974 C156.967537,9.28358974 158.995663,7.25641026 158.995663,4.75641026 C158.995663,2.25641026 156.967537,0.229230769 154.466371,0.229230769 L45.7685168,0.229230769 C43.2673507,0.229230769 41.2392258,2.25641026 41.2392258,4.75641026 C41.2392258,7.25692307 43.2673507,9.28358974 45.7685168,9.28358974 Z" id="Shape"></path>
                                    </g>
                                    <path d="M249.099207,27.5687179 L13.5873601,27.5687179 C11.086194,27.5687179 9.05806902,29.5958974 9.05806902,32.0958974 L9.05806902,54.7307693 L253.628499,54.7307693 L253.628499,32.0958974 C253.628499,29.5953846 251.600373,27.5687179 249.099207,27.5687179 Z M58.8782183,45.6764102 L22.6454291,45.6764102 C20.1442631,45.6764102 18.116138,43.6492307 18.116138,41.1492307 C18.116138,38.6492307 20.1442631,36.6220512 22.6454291,36.6220512 L58.8782183,36.6220512 C61.3793843,36.6220512 63.4075094,38.6492307 63.4075094,41.1492307 C63.4075094,43.6492307 61.3793843,45.6764102 58.8782183,45.6764102 Z M95.1104944,45.6764102 L76.9943563,45.6764102 C74.4931902,45.6764102 72.4650653,43.6492307 72.4650653,41.1492307 C72.4650653,38.6492307 74.4931902,36.6220512 76.9943563,36.6220512 L95.1104944,36.6220512 C97.6116604,36.6220512 99.6397851,38.6492307 99.6397851,41.1492307 C99.6397851,43.6492307 97.6116604,45.6764102 95.1104944,45.6764102 Z M131.343284,45.6764102 L113.227145,45.6764102 C110.725979,45.6764102 108.697855,43.6492307 108.697855,41.1492307 C108.697855,38.6492307 110.725979,36.6220512 113.227145,36.6220512 L131.343284,36.6220512 C133.84445,36.6220512 135.872574,38.6492307 135.872574,41.1492307 C135.872574,43.6492307 133.84445,45.6764102 131.343284,45.6764102 Z M167.576073,45.6764102 L149.459934,45.6764102 C146.958769,45.6764102 144.930644,43.6492307 144.930644,41.1492307 C144.930644,38.6492307 146.958769,36.6220512 149.459934,36.6220512 L167.576073,36.6220512 C170.077239,36.6220512 172.105364,38.6492307 172.105364,41.1492307 C172.105364,43.6492307 170.077239,45.6764102 167.576073,45.6764102 Z M203.808349,45.6764102 L185.692211,45.6764102 C183.191045,45.6764102 181.162919,43.6492307 181.162919,41.1492307 C181.162919,38.6492307 183.191045,36.6220512 185.692211,36.6220512 L203.808349,36.6220512 C206.309514,36.6220512 208.33764,38.6492307 208.33764,41.1492307 C208.33764,43.6492307 206.309514,45.6764102 203.808349,45.6764102 Z M240.041138,45.6764102 L221.925,45.6764102 C219.423834,45.6764102 217.395708,43.6492307 217.395708,41.1492307 C217.395708,38.6492307 219.423834,36.6220512 221.925,36.6220512 L240.041138,36.6220512 C242.542304,36.6220512 244.570429,38.6492307 244.570429,41.1492307 C244.570429,43.6492307 242.542304,45.6764102 240.041138,45.6764102 Z" id="Shape" fill="#E5F5FC"></path>
                                    <path d="M58.8782183,36.6225641 L22.6454291,36.6225641 C20.1442631,36.6225641 18.116138,38.6497436 18.116138,41.1497436 C18.116138,43.6497436 20.1442631,45.6769231 22.6454291,45.6769231 L58.8782183,45.6769231 C61.3793843,45.6769231 63.4075094,43.6497436 63.4075094,41.1497436 C63.4075094,38.6497436 61.3793843,36.6225641 58.8782183,36.6225641 Z" id="Shape" fill="#009FE3"></path>
                                    <g id="Group" transform="translate(72.341418, 36.410257)" fill="#83A6BF">
                                        <path d="M22.7690765,0.212307693 L4.65293843,0.212307693 C2.15177239,0.212307693 0.123647388,2.23948718 0.123647388,4.73948718 C0.123647388,7.23948718 2.15177239,9.26666667 4.65293843,9.26666667 L22.7690765,9.26666667 C25.2702425,9.26666667 27.2983676,7.23948718 27.2983676,4.73948718 C27.2983676,2.23948718 25.2702425,0.212307693 22.7690765,0.212307693 Z" id="Shape"></path>
                                        <path d="M59.0018657,0.212307693 L40.8857276,0.212307693 C38.3845616,0.212307693 36.3564365,2.23948718 36.3564365,4.73948718 C36.3564365,7.23948718 38.3845616,9.26666667 40.8857276,9.26666667 L59.0018657,9.26666667 C61.5030317,9.26666667 63.5311567,7.23948718 63.5311567,4.73948718 C63.5311567,2.23948718 61.5030317,0.212307693 59.0018657,0.212307693 Z" id="Shape"></path>
                                        <path d="M95.2346548,0.212307693 L77.1185168,0.212307693 C74.6173507,0.212307693 72.5892258,2.23948718 72.5892258,4.73948718 C72.5892258,7.23948718 74.6173507,9.26666667 77.1185168,9.26666667 L95.2346548,9.26666667 C97.7358209,9.26666667 99.7639463,7.23948718 99.7639463,4.73948718 C99.7639463,2.23948718 97.7358209,0.212307693 95.2346548,0.212307693 Z" id="Shape"></path>
                                        <path d="M131.466931,0.212307693 L113.350793,0.212307693 C110.849627,0.212307693 108.821501,2.23948718 108.821501,4.73948718 C108.821501,7.23948718 110.849627,9.26666667 113.350793,9.26666667 L131.466931,9.26666667 C133.968097,9.26666667 135.996222,7.23948718 135.996222,4.73948718 C135.996222,2.23948718 133.968097,0.212307693 131.466931,0.212307693 Z" id="Shape"></path>
                                        <path d="M167.69972,0.212307693 L149.583582,0.212307693 C147.082416,0.212307693 145.054291,2.23948718 145.054291,4.73948718 C145.054291,7.23948718 147.082416,9.26666667 149.583582,9.26666667 L167.69972,9.26666667 C170.200887,9.26666667 172.229011,7.23948718 172.229011,4.73948718 C172.229011,2.23948718 170.200887,0.212307693 167.69972,0.212307693 Z" id="Shape"></path>
                                    </g>
                                    <g id="Group" transform="translate(22.574627, 76.923077)" fill="#E5F5FC">
                                        <path d="M4.60009328,41.1846154 L63.4783115,41.1846154 C65.9794776,41.1846154 68.0076026,39.1574359 68.0076026,36.6574359 L68.0076026,0.441538462 C68.0076026,2.94153846 65.9794776,4.96871795 63.4783115,4.96871795 L4.60009328,4.96871795 C2.09892724,4.96871795 0.0708022388,2.94153846 0.0708022388,0.441538462 L0.0708022388,36.6574359 C0.0708022388,39.1579488 2.09841418,41.1846154 4.60009328,41.1846154 Z" id="Shape"></path>
                                        <path d="M86.1232276,41.1846154 L113.297947,41.1846154 C115.799113,41.1846154 117.827239,39.1574359 117.827239,36.6574359 L117.827239,0.441538462 C117.827239,2.94153846 115.799113,4.96871795 113.297947,4.96871795 L86.1232276,4.96871795 C83.6220616,4.96871795 81.5939365,2.94153846 81.5939365,0.441538462 L81.5939365,36.6574359 C81.5939365,39.1579488 83.6220616,41.1846154 86.1232276,41.1846154 Z" id="Shape"></path>
                                        <path d="M135.943377,41.1846154 L163.118098,41.1846154 C165.619263,41.1846154 167.647388,39.1574359 167.647388,36.6574359 L167.647388,0.441538462 C167.647388,2.94153846 165.619263,4.96871795 163.118098,4.96871795 L135.943377,4.96871795 C133.442211,4.96871795 131.414086,2.94153846 131.414086,0.441538462 L131.414086,36.6574359 C131.414086,39.1579488 133.441698,41.1846154 135.943377,41.1846154 Z" id="Shape"></path>
                                        <path d="M185.763013,41.1846154 L212.937733,41.1846154 C215.4389,41.1846154 217.467024,39.1574359 217.467024,36.6574359 L217.467024,0.441538462 C217.467024,2.94153846 215.4389,4.96871795 212.937733,4.96871795 L185.763013,4.96871795 C183.261847,4.96871795 181.233722,2.94153846 181.233722,0.441538462 L181.233722,36.6574359 C181.233722,39.1579488 183.261847,41.1846154 185.763013,41.1846154 Z" id="Shape"></path>
                                    </g>
                                    <path d="M27.1747202,81.8923077 L86.0529384,81.8923077 C88.5541045,81.8923077 90.5822295,79.8651282 90.5822295,77.3651282 L90.5822295,72.8379488 C90.5822295,70.3379488 88.5541045,68.3107693 86.0529384,68.3107693 L27.1747202,68.3107693 C24.6735541,68.3107693 22.6454292,70.3379488 22.6454292,72.8379488 L22.6454292,77.3651282 C22.6454292,79.8651282 24.6730411,81.8923077 27.1747202,81.8923077 Z" id="Shape" fill="#ACC7D5"></path>
                                    <path d="M108.697855,81.8923077 L135.872574,81.8923077 C138.37374,81.8923077 140.401866,79.8651282 140.401866,77.3651282 L140.401866,72.8379488 C140.401866,70.3379488 138.37374,68.3107693 135.872574,68.3107693 L108.697855,68.3107693 C106.196689,68.3107693 104.168563,70.3379488 104.168563,72.8379488 L104.168563,77.3651282 C104.168563,79.8651282 106.196689,81.8923077 108.697855,81.8923077 Z" id="Shape" fill="#009FE3"></path>
                                    <path d="M158.518004,81.8923077 L185.692724,81.8923077 C188.19389,81.8923077 190.222015,79.8651282 190.222015,77.3651282 L190.222015,72.8379488 C190.222015,70.3379488 188.19389,68.3107693 185.692724,68.3107693 L158.518004,68.3107693 C156.016838,68.3107693 153.988712,70.3379488 153.988712,72.8379488 L153.988712,77.3651282 C153.988712,79.8651282 156.016324,81.8923077 158.518004,81.8923077 Z" id="Shape" fill="#ACC7D5"></path>
                                    <path d="M208.33764,81.8923077 L235.51236,81.8923077 C238.013526,81.8923077 240.041651,79.8651282 240.041651,77.3651282 L240.041651,72.8379488 C240.041651,70.3379488 238.013526,68.3107693 235.51236,68.3107693 L208.33764,68.3107693 C205.836474,68.3107693 203.808349,70.3379488 203.808349,72.8379488 L203.808349,77.3651282 C203.808349,79.8651282 205.836474,81.8923077 208.33764,81.8923077 Z" id="Shape" fill="#A0DCF0"></path>
                                    <g id="Group" transform="translate(31.296642, 131.282052)" fill="#E5F5FC">
                                        <path d="M4.93614738,4.93384615 L4.93614738,41.1497436 C4.93614738,43.6497436 2.90802239,45.6769231 0.406856343,45.6769231 L104.57542,45.6769231 C107.076586,45.6769231 109.10471,43.6497436 109.10471,41.1497436 L109.10471,4.93384615 C109.10471,2.43384615 107.076586,0.406666667 104.57542,0.406666667 L0.406856343,0.406666667 C2.90802239,0.406666667 4.93614738,2.43384615 4.93614738,4.93384615 Z" id="Shape"></path>
                                        <path d="M136.279431,4.93384615 L136.279431,41.1497436 C136.279431,43.6497436 134.251305,45.6769231 131.75014,45.6769231 L204.215205,45.6769231 C206.716371,45.6769231 208.744497,43.6497436 208.744497,41.1497436 L208.744497,4.93384615 C208.744497,2.43384615 206.716371,0.406666667 204.215205,0.406666667 L131.75014,0.406666667 C134.251305,0.406666667 136.279431,2.43384615 136.279431,4.93384615 Z" id="Shape"></path>
                                    </g>
                                    <path d="M27.1747202,176.958462 L31.7040112,176.958462 C34.2051772,176.958462 36.2333023,174.931282 36.2333023,172.431282 L36.2333023,136.215385 C36.2333023,133.715385 34.2051772,131.688205 31.7040112,131.688205 L27.1747202,131.688205 C24.6735541,131.688205 22.6454292,133.715385 22.6454292,136.215385 L22.6454292,172.431282 C22.6454292,174.931282 24.6730411,176.958462 27.1747202,176.958462 Z" id="Shape" fill="#009FE3"></path>
                                    <path d="M158.518004,176.958462 L163.047295,176.958462 C165.548461,176.958462 167.576586,174.931282 167.576586,172.431282 L167.576586,136.215385 C167.576586,133.715385 165.548461,131.688205 163.047295,131.688205 L158.518004,131.688205 C156.016838,131.688205 153.988712,133.715385 153.988712,136.215385 L153.988712,172.431282 C153.988712,174.931282 156.016324,176.958462 158.518004,176.958462 Z" id="Shape" fill="#ACC7D5"></path>
                                </g>
                            </g>
                        </g>
                    </g>
                </g>
            </g>
        </g>
    </g>
</svg>