<?xml version="1.0" encoding="UTF-8" standalone="no"?>
<svg width="100%" viewBox="0 0 340 200" version="1.1" xmlns="http://www.w3.org/2000/svg" xmlns:xlink="http://www.w3.org/1999/xlink">
    <!-- Generator: Sketch 41.2 (35397) - http://www.bohemiancoding.com/sketch -->
    <title>concepts</title>
    <desc>Created with Sketch.</desc>
    <defs></defs>
    <g id="Page-1" stroke="none" stroke-width="1" fill="none" fill-rule="evenodd">
        <g id="concepts" transform="translate(72.000000, 8.000000)">
            <g id="Beratung">
                <g id="Page-1">
                    <g id="Leistungen-Var-Copy-4">
                        <g id="Web-Applikationen-Copy">
                            <g id="Beratung">
                                <g id="chatting">
                                    <path d="M94.3805607,14.3611567 L181.252845,14.3611567 C189.216268,14.3611567 195.731423,20.8238806 195.731423,28.7223134 L195.731423,78.9867687 C195.731423,86.8856082 189.215858,93.3479254 181.252845,93.3479254 L134.196854,93.3479254 L134.196854,106.965604 C134.196854,108.56522 132.247105,109.365638 131.107598,108.234966 L116.098427,93.3483321 L94.3801506,93.3483321 C86.416728,93.3483321 79.9015732,86.8856082 79.9015732,78.9871754 L79.9015732,28.7227201 C79.9019833,20.8238806 86.4171381,14.3611567 94.3805607,14.3611567 Z" id="Shape" fill="#DCE9F1"></path>
                                    <path d="M157.007481,43.0838769 L123.338126,43.0838769 L123.338126,35.9032985 L152.172678,35.9032985 C154.100285,35.9032985 155.782686,34.4602687 155.907749,32.5527687 C156.044293,30.4618396 154.376653,28.7227201 152.29569,28.7227201 L123.338126,28.7227201 L123.338126,14.3611567 L116.098837,14.3611567 L116.098837,64.6256119 C116.098837,72.5244515 109.583272,78.9867687 101.620259,78.9867687 L79.9019833,78.9867687 C79.9019833,81.610903 80.6728619,84.044694 81.9255397,86.167347 L101.620259,86.167347 C113.595531,86.167347 123.338536,76.5033582 123.338536,64.6252052 L137.705172,64.6252052 C139.519197,64.6252052 141.140092,63.3489291 141.398418,61.5675112 C141.719481,59.3480597 139.994845,57.4446269 137.817113,57.4446269 L123.338536,57.4446269 L123.338536,50.2640485 L157.131724,50.2640485 C159.212686,50.2640485 160.880326,48.5253358 160.743782,46.434 C160.61831,44.5269067 158.935498,43.0838769 157.007481,43.0838769 Z" id="Shape" fill="#ACC7D5"></path>
                                    <g id="Group" transform="translate(145.974895, 57.347015)" fill="#ACC7D5">
                                        <path d="M12.5558912,7.18098507 L3.61984937,7.18098507 C1.61925523,7.18098507 0,5.57323507 0,3.59049254 C0,1.60775 1.61884519,0 3.61984937,0 L12.5558912,0 C14.5564854,0 16.1757406,1.60775 16.1757406,3.59049254 C16.1757406,5.57323507 14.5568954,7.18098507 12.5558912,7.18098507 Z" id="Shape"></path>
                                    </g>
                                    <path d="M177.632996,78.9871754 L126.957565,78.9871754 C124.956971,78.9871754 123.337715,77.3794254 123.337715,75.3966828 C123.337715,73.4139403 124.956561,71.8061903 126.957565,71.8061903 L177.632996,71.8061903 C179.63359,71.8061903 181.252845,73.4139403 181.252845,75.3966828 C181.252845,77.3794254 179.634,78.9871754 177.632996,78.9871754 Z" id="Shape" fill="#ACC7D5"></path>
                                    <path d="M101.619849,0 L14.7475649,0 C6.78414226,0 0.268987448,6.46272388 0.268987448,14.3611567 L0.268987448,64.6256119 C0.268987448,72.5244515 6.7845523,78.9867687 14.7475649,78.9867687 L61.8035565,78.9867687 L61.8035565,92.6044478 C61.8035565,94.2040634 63.7533054,95.0044813 64.8928117,93.8738097 L79.9019833,78.9871754 L101.620259,78.9871754 C109.583682,78.9871754 116.098837,72.5244515 116.098837,64.6260187 L116.098837,14.3611567 C116.098427,6.46272388 109.583272,0 101.619849,0 Z" id="Shape" stroke="#DCE9F1" stroke-width="4" fill="#FEFEFE"></path>
                                    <path d="M97.7170711,21.4160597 L86.8583431,21.4160597 C84.857749,21.4160597 83.2384937,19.8083097 83.2384937,17.8255672 C83.2384937,15.8428246 84.8573389,14.2350746 86.8583431,14.2350746 L97.7174812,14.2350746 C99.7180753,14.2350746 101.337331,15.8428246 101.337331,17.8255672 C101.337331,19.8083097 99.7180753,21.4160597 97.7170711,21.4160597 Z" id="Shape" fill="#ACC7D5"></path>
                                    <g id="Group" transform="translate(29.933054, 14.235075)" fill="#ACC7D5">
                                        <path d="M46.844,7.18098507 L3.61984937,7.18098507 C1.61925523,7.18098507 0,5.57323507 0,3.59049254 C0,1.60775 1.61884519,0 3.61984937,0 L46.844,0 C48.8445941,0 50.4638494,1.60775 50.4638494,3.59049254 C50.4638494,5.57323507 48.8445941,7.18098507 46.844,7.18098507 Z" id="Shape"></path>
                                    </g>
                                    <path d="M98.127523,64.528 L87.2683849,64.528 C85.2677908,64.528 83.6485356,62.92025 83.6485356,60.9375075 C83.6485356,58.9547649 85.2673808,57.3470149 87.2683849,57.3470149 L98.127523,57.3470149 C100.128117,57.3470149 101.747372,58.9547649 101.747372,60.9375075 C101.746962,62.9206567 100.128117,64.528 98.127523,64.528 Z" id="Shape-Copy-2" fill="#ACC7D5"></path>
                                    <g id="Group" transform="translate(14.761506, 28.470149)" fill="#ACC7D5">
                                        <path d="M57.9147197,36.0578507 L3.61984937,36.0578507 C1.61925523,36.0578507 0,34.4501007 0,32.4673582 C0,30.4846157 1.61884519,28.8768657 3.61984937,28.8768657 L57.9151297,28.8768657 C59.9157238,28.8768657 61.5349791,30.4846157 61.5349791,32.4673582 C61.534569,34.4505075 59.9157238,36.0578507 57.9147197,36.0578507 Z" id="Shape-Copy"></path>
                                        <path d="M83.3373138,21.4160597 L18.3813556,21.4160597 C16.3807615,21.4160597 14.7615063,19.8083097 14.7615063,17.8255672 C14.7615063,15.8428246 16.3803515,14.2350746 18.3813556,14.2350746 L83.3377238,14.2350746 C85.338318,14.2350746 86.9575732,15.8428246 86.9575732,17.8255672 C86.9571632,19.8087164 85.338318,21.4160597 83.3373138,21.4160597 Z" id="Shape-Copy-3"></path>
                                        <path d="M83.3373138,7.18098507 L18.3813556,7.18098507 C16.3807615,7.18098507 14.7615063,5.57323507 14.7615063,3.59049254 C14.7615063,1.60775 16.3803515,0 18.3813556,0 L83.3377238,0 C85.338318,0 86.9575732,1.60775 86.9575732,3.59049254 C86.9571632,5.57364179 85.338318,7.18098507 83.3373138,7.18098507 Z" id="Shape-Copy-4"></path>
                                    </g>
                                </g>
                                <path d="M184,37.2674419 C184,32.4011628 179.913793,29 173.241379,29 C169.931034,29 164.706897,30.3604651 163.310345,33.1337209 C163.103448,33.5523256 163,34.0232558 163,34.5465116 C163,36.4302326 164.396552,37.5813953 166.051724,37.5813953 C166.827586,37.5813953 167.603448,37.372093 168.224138,36.9534884 C169.465517,36.1162791 170.913793,35.5930233 172.465517,35.5930233 C175.310345,35.5930233 176.5,36.9534884 176.5,38.5755814 C176.5,42.1860465 168.948276,42.9186047 168.948276,49.1453488 C168.948276,52.3372093 170.655172,54.0116279 172.62069,54.0116279 C174.534483,54.0116279 175.517241,52.5465116 175.517241,51.2383721 C175.517241,50.7151163 175.362069,50.505814 175.362069,49.8255814 C175.362069,45.4825581 184,44.9069767 184,37.2674419 Z M177.327586,60.7616279 C177.327586,58.4593023 175.413793,56.5232558 173.137931,56.5232558 C170.862069,56.5232558 168.948276,58.4593023 168.948276,60.7616279 C168.948276,63.0639535 170.862069,65 173.137931,65 C175.413793,65 177.327586,63.0639535 177.327586,60.7616279 Z" id="?" fill="#009FE3"></path>
                                <path d="M23.552795,17.954612 C23.552795,15.7335286 21.8198758,14 19.5279503,14 C17.1242236,14 15.3354037,15.7335286 15.3354037,17.954612 C15.3354037,19.0380673 15.9503106,30.0351391 16.2298137,36.0483163 C16.2857143,37.727672 17.6832298,39.0278184 19.4161491,39.0278184 C21.2608696,39.0278184 22.6583851,37.727672 22.7142857,36.0483163 C22.9937888,30.0351391 23.552795,19.0380673 23.552795,17.954612 Z M24,46.6661786 C24,44.2825769 21.931677,42.2781845 19.4720497,42.2781845 C17.0124224,42.2781845 15,44.2825769 15,46.6661786 C15,48.9956076 17.0124224,51 19.4720497,51 C21.931677,51 24,48.9956076 24,46.6661786 Z" id="!" fill="#009FE3"></path>
                                <g id="Group-8" transform="translate(3.000000, 102.000000)">
                                    <g id="Group-7" fill="#A0DCF0">
                                        <path d="M52.0874901,49.1943769 C66.2414839,54.5290574 76.2808989,67.9304185 76.2808989,83.6190544 L0.640449438,83.6190544 C0.640449438,67.7362269 10.9299353,54.1976478 25.3613262,49 C29.2224177,51.5870305 33.8703019,53.0965319 38.8717636,53.0965319 C43.746624,53.0965319 48.2855806,51.6624828 52.0874901,49.1943769 Z" id="Combined-Shape"></path>
                                        <ellipse id="Oval-2-Copy-6" cx="38.2542745" cy="24.1846847" rx="24.2542745" ry="24.1846847"></ellipse>
                                    </g>
                                    <g id="Group-7-Copy" transform="translate(121.000000, 0.000000)" fill="#C7D7E2">
                                        <path d="M52.0874901,49.1943769 C66.2414839,54.5290574 76.2808989,67.9304185 76.2808989,83.6190544 L0.640449438,83.6190544 C0.640449438,67.7362269 10.9299353,54.1976478 25.3613262,49 C29.2224177,51.5870305 33.8703019,53.0965319 38.8717636,53.0965319 C43.746624,53.0965319 48.2855806,51.6624828 52.0874901,49.1943769 Z" id="Combined-Shape"></path>
                                        <ellipse id="Oval-2-Copy-6" cx="38.2542745" cy="24.1846847" rx="24.2542745" ry="24.1846847"></ellipse>
                                    </g>
                                </g>
                            </g>
                        </g>
                    </g>
                </g>
            </g>
        </g>
    </g>
</svg>
