<?xml version="1.0" encoding="UTF-8" standalone="no"?>
<svg width="100%" viewBox="0 0 340 200" version="1.1" xmlns="http://www.w3.org/2000/svg" xmlns:xlink="http://www.w3.org/1999/xlink">
    <!-- Generator: Sketch 41.2 (35397) - http://www.bohemiancoding.com/sketch -->
    <title>OpenSource</title>
    <desc>Created with Sketch.</desc>
    <defs></defs>
    <g id="Page-1" stroke="none" stroke-width="1" fill="none" fill-rule="evenodd">
        <g id="OpenSource" transform="translate(85.000000, 3.000000)">
            <g id="Page-1">
                <g id="OpenSource">
                    <g id="Group-2-Copy-2" transform="translate(39.000000, 0.776144)">
                        <g id="light-bulb" transform="translate(22.000000, 20.000000)">
                            <path d="M47.8479405,21.5786836 C46.5862246,10.3528001 37.5012126,1.37200847 26.1450548,0.124766579 C25.3879109,0.124766579 24.7571244,0 23.9999805,0 C23.2428366,0 22.6120501,0 21.8549062,0.124766579 C10.4987484,1.37200847 1.4137364,10.4775667 0.152020497,21.5786836 C-0.731194928,29.5616252 2.29709476,36.7961086 7.59667319,41.7853588 C10.6249629,44.6541423 13.1485376,48.3961506 13.9056815,52.3875507 L34.0944224,52.3875507 C34.8515663,48.3961506 37.375141,44.6541423 40.4034307,41.7853588 C45.7028662,36.7961086 48.7312988,29.5616252 47.8479405,21.5786836" id="Shape" fill="#009FE3"></path>
                            <polygon id="Shape" fill="#DCE9F1" points="13.9065421 52.3875507 13.9065421 67.3554223 34.0934579 67.3554223 34.0934579 57.3767941 34.0934579 52.3875507"></polygon>
                            <g id="Group" transform="translate(13.906542, 55.909403)" fill="#ACC7D5">
                                <path d="M12.2243171,16.2885662 L8.41119696,16.2885662 C7.26724652,16.2885662 6.12329609,15.8043115 5.36075846,14.8358022 L2.69158879,11.4460195 L17.9439252,11.4460195 L15.2747556,14.8358022 C14.5122179,15.8043115 13.3682675,16.2885662 12.2243171,16.2885662" id="Shape"></path>
                                <path d="M8.63546161,2.64138911 C9.37570792,2.64138911 9.86915888,2.11314121 9.86915888,1.32069456 C9.86915888,0.528247901 9.37570792,0 8.63546161,0 L0,0 L0,2.64123951 L8.63546161,2.64123951 L8.63546161,2.64138911 Z" id="Shape"></path>
                                <path d="M5.02424215,7.48393581 C5.77794962,7.48393581 6.28037383,6.95568791 6.28037383,6.16324126 C6.28037383,5.3707946 5.77794962,4.8425467 5.02424215,4.8425467 L0,4.8425467 L0,7.48378621 L5.02424215,7.48378621 L5.02424215,7.48393581 Z" id="Shape"></path>
                                <path d="M20.1869159,0 L15.1626737,0 C14.4089663,0 13.9065421,0.528247901 13.9065421,1.32069456 C13.9065421,2.11314121 14.4089663,2.64138911 15.1626737,2.64138911 L20.1869159,2.64138911 L20.1869159,1.32069456 L20.1869159,0 Z" id="Shape"></path>
                                <path d="M11.1028561,4.8425467 C10.3626098,4.8425467 9.86915888,5.3707946 9.86915888,6.16324126 C9.86915888,6.95568791 10.3626098,7.48393581 11.1028561,7.48393581 L19.7383178,7.48393581 L19.7383178,4.84269631 L11.1028561,4.84269631 L11.1028561,4.8425467 Z" id="Shape"></path>
                            </g>
                        </g>
                        <path d="M31.7083081,46.4790542 C31.6626495,46.3430059 31.5707969,46.0037503 31.4721132,45.4983864 C30.8961607,42.5489031 31.118252,39.3034817 32.6873171,36.2955889 C34.4598712,32.8976083 37.8279423,30.1050234 43.2619315,28.1643298 C44.6118946,27.6822043 45.3253407,26.1684896 44.8554579,24.7833535 C44.3855751,23.3982174 42.9102985,22.6661826 41.5603354,23.1483081 C34.9434654,25.5114555 30.5349327,29.1667233 28.123593,33.789254 C25.9096225,38.0334283 25.6048594,42.4869325 26.396663,46.5417999 C26.4808711,46.9730345 26.5722115,47.3625559 26.6653265,47.706474 C26.7256253,47.9291859 26.7769397,48.0977843 26.8140323,48.2083088 C27.279427,49.5950392 28.7523249,50.3320995 30.1038419,49.854579 C31.4553588,49.3770586 32.1737028,47.8657846 31.7083081,46.4790542 Z" id="Path-2" fill="#3FBEF4"></path>
                        <path d="M46,13.3333333 L46,2.66666667 C46,1.19390733 45.1045695,0 44,0 C42.8954305,0 42,1.19390733 42,2.66666667 L42,13.3333333 C42,14.8060927 42.8954305,16 44,16 C45.1045695,16 46,14.8060927 46,13.3333333 Z" id="Line" fill="#009FE3"></path>
                        <path d="M77.6666667,43 L88.3333333,43 C89.8060927,43 91,42.1045695 91,41 C91,39.8954305 89.8060927,39 88.3333333,39 L77.6666667,39 C76.1939073,39 75,39.8954305 75,41 C75,42.1045695 76.1939073,43 77.6666667,43 Z" id="Line-Copy" fill="#009FE3"></path>
                        <path d="M2.66666667,43 L13.3333333,43 C14.8060927,43 16,42.1045695 16,41 C16,39.8954305 14.8060927,39 13.3333333,39 L2.66666667,39 C1.19390733,39 0,39.8954305 0,41 C0,42.1045695 1.19390733,43 2.66666667,43 Z" id="Line-Copy-2" fill="#009FE3"></path>
                        <path d="M10.7877818,17.5915286 L18.4084714,25.2122182 C19.4588471,26.2625939 21.1618426,26.2625939 22.2122182,25.2122182 C23.2625939,24.1618426 23.2625939,22.4588471 22.2122182,21.4084714 L14.5915286,13.7877818 C13.5411529,12.7374061 11.8381574,12.7374061 10.7877818,13.7877818 C9.73740608,14.8381574 9.73740608,16.5411529 10.7877818,17.5915286 Z" id="Line-Copy-3" fill="#009FE3"></path>
                        <path d="M76.4084714,13.7877818 L68.7877818,21.4084714 C67.7374061,22.4588471 67.7374061,24.1618426 68.7877818,25.2122182 C69.8381574,26.2625939 71.5411529,26.2625939 72.5915286,25.2122182 L80.2122182,17.5915286 C81.2625939,16.5411529 81.2625939,14.8381574 80.2122182,13.7877818 C79.1618426,12.7374061 77.4588471,12.7374061 76.4084714,13.7877818 Z" id="Line-Copy-4" fill="#009FE3"></path>
                    </g>
                    <g id="Group-8-Copy" transform="translate(0.000000, 144.000000)">
                        <g id="Group-7" fill="#A0DCF0">
                            <path d="M32.4701237,31.0393093 C41.2933925,34.4052386 47.5517292,42.8608593 47.5517292,52.7596415 L0.399241208,52.7596415 C0.399241208,42.7383336 6.81346618,34.1961349 15.8096579,30.9166667 C18.2165721,32.5489597 21.1139545,33.5013832 24.2317487,33.5013832 C27.2706228,33.5013832 30.1001022,32.5965665 32.4701237,31.0393093 Z" id="Combined-Shape"></path>
                            <ellipse id="Oval-2-Copy-6" cx="23.8468205" cy="15.2593844" rx="15.1195478" ry="15.2593844"></ellipse>
                        </g>
                        <g id="Group-7-Copy-2" transform="translate(122.000000, 0.000000)" fill="#A0DCF0">
                            <path d="M32.4701237,31.0393093 C41.2933925,34.4052386 47.5517292,42.8608593 47.5517292,52.7596415 L0.399241208,52.7596415 C0.399241208,42.7383336 6.81346618,34.1961349 15.8096579,30.9166667 C18.2165721,32.5489597 21.1139545,33.5013832 24.2317487,33.5013832 C27.2706228,33.5013832 30.1001022,32.5965665 32.4701237,31.0393093 Z" id="Combined-Shape"></path>
                            <ellipse id="Oval-2-Copy-6" cx="23.8468205" cy="15.2593844" rx="15.1195478" ry="15.2593844"></ellipse>
                        </g>
                        <g id="Group-7-Copy" transform="translate(61.000000, 0.000000)" fill="#C7D7E2">
                            <path d="M32.4701237,31.0393093 C41.2933925,34.4052386 47.5517292,42.8608593 47.5517292,52.7596415 L0.399241208,52.7596415 C0.399241208,42.7383336 6.81346618,34.1961349 15.8096579,30.9166667 C18.2165721,32.5489597 21.1139545,33.5013832 24.2317487,33.5013832 C27.2706228,33.5013832 30.1001022,32.5965665 32.4701237,31.0393093 Z" id="Combined-Shape"></path>
                            <ellipse id="Oval-2-Copy-6" cx="23.8468205" cy="15.2593844" rx="15.1195478" ry="15.2593844"></ellipse>
                        </g>
                    </g>
                    <polyline id="Path-3" stroke="#DCE9F1" stroke-width="4" points="24.1280265 134.776144 24.1280265 117.779373 145.943278 117.779373 145.943278 134.776144"></polyline>
                    <path d="M85,103 L85,134.639894" id="Path-4" stroke="#DCE9F1" stroke-width="4"></path>
                </g>
            </g>
        </g>
    </g>
</svg>
