<svg width="42" height="42" viewBox="0 0 42 42" xmlns="http://www.w3.org/2000/svg"><title>GitHub</title><path d="M21 0C9.402 0 0 9.402 0 21s9.402 21 21 21 21-9.402 21-21S32.598 0 21 0zm12.471 33.471a17.583 17.583 0 0 1-7.231 4.376v-3.148c0-1.654-.568-2.87-1.703-3.65a18.376 18.376 0 0 0 1.959-.287 14.828 14.828 0 0 0 1.887-.533 9.347 9.347 0 0 0 1.784-.831 7.44 7.44 0 0 0 1.517-1.251 7.318 7.318 0 0 0 1.22-1.743c.329-.65.589-1.429.78-2.338.191-.91.287-1.91.287-3.004 0-2.12-.69-3.924-2.071-5.415.629-1.64.56-3.424-.205-5.352l-.513-.062c-.355-.04-.995.11-1.918.452-.922.341-1.958.902-3.107 1.681a18.867 18.867 0 0 0-5.065-.677 18.5 18.5 0 0 0-5.045.677 17.564 17.564 0 0 0-2.06-1.22c-.65-.321-1.17-.54-1.56-.656a5.345 5.345 0 0 0-1.086-.216c-.335-.027-.55-.034-.646-.02a1.31 1.31 0 0 0-.205.04c-.766 1.942-.834 3.727-.205 5.353-1.381 1.49-2.072 3.295-2.072 5.415 0 1.093.096 2.095.287 3.004.192.91.451 1.688.78 2.338a7.32 7.32 0 0 0 1.22 1.743c.485.513.991.93 1.517 1.25a9.352 9.352 0 0 0 1.785.832c.663.232 1.292.41 1.886.533.595.123 1.248.218 1.959.287-1.121.765-1.682 1.982-1.682 3.65v3.209A17.583 17.583 0 0 1 8.53 33.47 17.581 17.581 0 0 1 3.363 21 17.584 17.584 0 0 1 8.53 8.529 17.58 17.58 0 0 1 21 3.363 17.584 17.584 0 0 1 33.471 8.53 17.581 17.581 0 0 1 38.637 21a17.582 17.582 0 0 1-5.166 12.471z" fill="#1E324B" fill-rule="evenodd"/></svg>