<svg xmlns="http://www.w3.org/2000/svg" width="315.397" height="60.929" viewBox="0 0 236.54754 45.69664"><title>smartive_positiv</title><path d="M20.616 23.7a12.491 12.491 0 0 0-5.417-1.382c-1.16 0-3.15.498-3.15 1.934 0 1.935 3.15 2.21 4.532 2.487 4.699.94 8.236 3.151 8.236 8.401 0 7.461-6.799 10.557-13.376 10.557A21.993 21.993 0 0 1 0 42.437l3.648-7.02a16.182 16.182 0 0 0 7.959 2.874c1.271 0 3.15-.608 3.15-2.156 0-2.21-3.15-2.321-6.3-3.15-3.151-.83-6.302-2.377-6.302-7.462 0-6.964 6.302-10.059 12.492-10.059a22.538 22.538 0 0 1 9.34 1.824zm16.273-3.759h.11a10.496 10.496 0 0 1 8.954-4.477c4.09 0 7.628 1.658 9.672 5.417a10.83 10.83 0 0 1 9.618-5.417c7.184 0 9.672 4.699 9.672 11.22v18.073h-10.06v-13.54c0-2.93.111-7.738-4.145-7.738-4.643 0-4.808 4.366-4.808 7.738v13.54h-10.06v-13.54c0-3.151 0-7.96-4.476-7.96-4.477 0-4.477 4.809-4.477 7.96v13.54h-10.06V16.404h10.06zm73.349 24.816H100.18v-3.15h-.111c-1.77 2.818-5.25 4.09-8.567 4.09-8.401 0-14.315-7.02-14.315-15.144 0-8.125 5.803-15.089 14.205-15.089a11.569 11.569 0 0 1 8.788 3.703v-2.763h10.058zm-22.66-14.149a6.467 6.467 0 0 0 12.933 0 6.466 6.466 0 0 0-12.933 0zm36.005-9.561h.111c1.935-3.483 5.251-5.03 9.174-5.03h1.935v9.673a8.14 8.14 0 0 0-4.255-.94c-5.582 0-6.965 3.702-6.965 8.566v11.441h-10.058V16.404h10.058zm26.73 23.71h-10.06V24.694h-3.26v-8.29h3.26V7.892h10.06v8.512h5.694v8.29h-5.694zm8.022-28.348v28.34h10.06V16.41zm30.624 14.531l6.744-14.536h11.273l-14.81 28.353h-6.414l-14.867-28.353h11.275zm47.589 1.326h-21.17c0 4.09 2.157 6.301 6.3 6.301a5.028 5.028 0 0 0 4.81-2.598h9.672c-1.602 6.687-7.959 9.728-14.425 9.728-9.397 0-16.416-5.306-16.416-15.089 0-9.451 6.467-15.144 15.698-15.144 9.837 0 15.53 6.08 15.53 15.753zm-9.34-5.803a5.659 5.659 0 0 0-5.694-4.477c-2.93 0-5.36 1.548-5.97 4.477z" fill="#002c46"/><path d="M162.284 0a5.627 5.627 0 0 0 1.09 11.15 5.519 5.519 0 0 0 3.914-1.6z" fill="#009fe3"/></svg>