<svg width="21" height="39" viewBox="0 0 21 39" xmlns="http://www.w3.org/2000/svg"><title>Facebook</title><path d="M20.21.008L15.171 0C9.513 0 5.856 3.752 5.856 9.56v4.406H.792A.792.792 0 0 0 0 14.76v6.386c0 .437.355.792.792.792h5.064V38.05c0 .438.355.792.792.792h6.608a.792.792 0 0 0 .792-.792V21.937h5.922a.792.792 0 0 0 .792-.792l.002-6.386a.793.793 0 0 0-.792-.793h-5.924V10.23c0-1.795.428-2.707 2.767-2.707l3.393-.001A.792.792 0 0 0 21 6.73V.8a.792.792 0 0 0-.79-.792z" fill="#1E324B" fill-rule="evenodd"/></svg>