<svg width="40" height="32" viewBox="0 0 40 32" xmlns="http://www.w3.org/2000/svg"><title>Twitter</title><path d="M39.395 3.786a16.139 16.139 0 0 1-4.64 1.273A8.115 8.115 0 0 0 38.307.59a16.292 16.292 0 0 1-5.135 1.962A8.059 8.059 0 0 0 27.273 0a8.082 8.082 0 0 0-8.082 8.08c0 .632.072 1.25.21 1.84-6.716-.337-12.67-3.554-16.656-8.443a8.02 8.02 0 0 0-1.093 4.062 8.077 8.077 0 0 0 3.594 6.725 8.082 8.082 0 0 1-3.66-1.014v.101c0 3.914 2.786 7.18 6.481 7.924a8.186 8.186 0 0 1-2.13.283 7.757 7.757 0 0 1-1.52-.15 8.086 8.086 0 0 0 7.547 5.613 16.214 16.214 0 0 1-10.036 3.454c-.653 0-1.295-.04-1.928-.111A22.844 22.844 0 0 0 12.387 32C27.254 32 35.38 19.686 35.38 9.007l-.027-1.046a16.138 16.138 0 0 0 4.042-4.175z" fill="#1E324B" fill-rule="evenodd"/></svg>